<?xml version="1.0" standalone="no"?>
<!DOCTYPE svg PUBLIC "-//W3C//DTD SVG 20010904//EN"
 "http://www.w3.org/TR/2001/REC-SVG-20010904/DTD/svg10.dtd">
<svg version="1.0" xmlns="http://www.w3.org/2000/svg"
 width="192.000000pt" height="192.000000pt" viewBox="0 0 192.000000 192.000000"
 preserveAspectRatio="xMidYMid meet">
<metadata>
Created by potrace 1.11, written by Peter Selinger 2001-2013
</metadata>
<g transform="translate(0.000000,192.000000) scale(0.100000,-0.100000)"
fill="#000000" stroke="none">
<path d="M560 1700 l0 -60 190 0 190 0 -30 -60 c-17 -33 -36 -60 -43 -61 -79
-4 -174 -15 -207 -24 -3 -1 -21 -5 -40 -9 -82 -19 -163 -76 -196 -136 -18 -33
-19 -63 -21 -435 -2 -381 -1 -402 18 -441 26 -53 73 -98 133 -127 l48 -23 -61
-63 c-33 -34 -61 -71 -61 -82 0 -17 8 -19 88 -19 l89 0 81 80 82 80 150 0 151
0 79 -80 79 -80 81 0 c73 0 80 2 80 20 0 11 -27 46 -59 79 l-59 59 44 11 c61
16 109 61 134 128 20 55 21 71 18 462 -3 443 0 419 -62 489 -55 63 -191 101
-394 111 l-22 1 30 60 30 60 130 0 130 0 0 60 0 60 -400 0 -400 0 0 -60z m800
-700 l0 -200 -400 0 -400 0 0 200 0 200 400 0 400 0 0 -200z m-316 -359 c26
-27 31 -39 31 -81 0 -43 -5 -54 -33 -82 -28 -28 -39 -33 -82 -33 -43 0 -54 5
-82 33 -28 28 -33 39 -33 81 0 52 25 92 70 112 37 16 96 3 129 -30z"/>
</g>
</svg>
